<svg width="24" height="23" viewBox="0 0 24 23" fill="none" xmlns="http://www.w3.org/2000/svg">
<path fill-rule="evenodd" clip-rule="evenodd" d="M7.03503 2.63C4.82589 2.63 3.03503 4.42086 3.03503 6.63V8.63V18.63C3.03503 20.8391 4.82589 22.63 7.03503 22.63H19.035C21.2441 22.63 23.035 20.8391 23.035 18.63V10.63C23.035 8.42086 21.2441 6.63 19.035 6.63C19.035 4.42086 17.2441 2.63 15.035 2.63H7.03503ZM17.035 6.63H5.03503C5.03503 5.52543 5.93046 4.63 7.03503 4.63H15.035C16.1396 4.63 17.035 5.52543 17.035 6.63ZM5.03503 18.63V8.63H19.035C20.1396 8.63 21.035 9.52543 21.035 10.63V18.63C21.035 19.7346 20.1396 20.63 19.035 20.63H7.03503C5.93046 20.63 5.03503 19.7346 5.03503 18.63ZM15.035 13.63C14.4827 13.63 14.035 14.0777 14.035 14.63C14.035 15.1823 14.4827 15.63 15.035 15.63H18.035C18.5873 15.63 19.035 15.1823 19.035 14.63C19.035 14.0777 18.5873 13.63 18.035 13.63H15.035Z" fill="white"/>
</svg>
